<svg width="661" height="748" viewBox="0 0 661 748" fill="none" xmlns="http://www.w3.org/2000/svg">
<g clip-path="url(#clip0_71:595)">
<path d="M660.678 718.062L660.678 732.871C660.678 732.871 689.684 925.81 659.256 740.037C588.122 305.733 87.532 623.393 28.2354 182.042C-4.61997 -62.5034 122.322 -8.07689 122.322 -8.07689L660.678 -1.86585L660.678 718.062Z" fill="url(#paint0_linear_71:595)"/>
<path d="M602.292 470.139C602.39 470.121 602.491 470.123 602.589 470.144C602.686 470.165 602.778 470.206 602.859 470.263C602.94 470.32 603.01 470.393 603.062 470.477C603.115 470.562 603.151 470.656 603.167 470.755C603.95 475.515 605.527 479.235 608.195 482.531C609.563 481.632 610.619 480.305 611.228 478.695C612.035 476.559 611.998 474.142 611.12 471.706C610.337 469.531 608.991 468.109 607.689 466.732C606.046 464.996 604.494 463.356 604.168 460.251C604.131 459.907 603.934 459.632 603.638 459.513C603.299 459.379 602.94 459.464 602.569 459.77C601.701 460.487 599.996 463.044 598.648 466.082C596.483 470.962 596.43 474.214 596.767 476.083C597.203 478.496 598.525 480.644 600.391 482.043C600.742 482.308 601.113 482.545 601.5 482.753C603.261 483.693 605.179 483.872 606.8 483.254C604.086 479.818 602.472 475.945 601.662 471.03C601.646 470.931 601.649 470.829 601.672 470.731C601.695 470.632 601.737 470.539 601.795 470.456C601.854 470.374 601.928 470.303 602.013 470.249C602.098 470.194 602.193 470.157 602.292 470.139V470.139ZM609.766 484.299C609.204 483.721 608.681 483.134 608.194 482.532C607.814 482.782 607.412 482.998 606.994 483.176C606.93 483.204 606.865 483.23 606.8 483.254C607.386 483.994 608.01 484.703 608.669 485.378C608.738 485.452 608.821 485.511 608.913 485.551C609.005 485.592 609.105 485.614 609.206 485.615C609.308 485.616 609.409 485.597 609.503 485.559C609.598 485.521 609.684 485.464 609.757 485.392C609.83 485.321 609.888 485.235 609.928 485.141C609.969 485.047 609.99 484.946 609.99 484.844C609.991 484.742 609.972 484.641 609.934 484.548C609.895 484.454 609.838 484.37 609.766 484.299L609.766 484.299Z" fill="white" fill-opacity="0.4"/>
<path d="M115.116 80C74.4406 209.253 485.689 280.147 554.461 396.696C600.307 474.393 523.951 587.837 537.798 643" stroke="white" stroke-opacity="0.2"/>
<path d="M520.198 218.906C519.825 217.897 519.231 217.115 518.478 216.64C518.305 216.992 518.097 217.324 517.86 217.632C517.861 217.633 517.863 217.634 517.864 217.635C518.985 218.315 519.637 220.052 519.449 221.86C519.139 224.856 518.277 226.909 517.022 227.641C516.207 228.117 515.189 228.049 513.999 227.44L513.883 227.381H513.025L512.909 227.44C511.718 228.049 510.701 228.117 509.885 227.641C508.631 226.909 507.769 224.856 507.458 221.86C507.271 220.052 507.923 218.315 509.044 217.635C509.405 217.417 509.814 217.305 510.23 217.309C511.079 217.309 512.057 217.729 513.12 218.558L513.157 218.588C513.157 218.588 514.69 218.391 515.297 218.101C517.126 217.224 517.529 215.831 517.601 215.642C517.812 215.089 517.917 214.498 517.911 213.902C517.905 213.306 517.787 212.718 517.565 212.17L517.422 211.793L517.037 211.797C516.428 211.804 515.828 211.947 515.275 212.216C514.722 212.485 514.23 212.875 513.83 213.359C513.43 213.844 513.132 214.412 512.954 215.027C512.777 215.642 512.725 216.289 512.802 216.926C512.138 216.533 511.491 216.283 510.872 216.179C509.996 216.032 509.192 216.175 508.483 216.605C507.705 217.077 507.091 217.873 506.71 218.906C506.362 219.845 506.231 220.94 506.34 221.99C506.697 225.429 507.734 227.743 509.341 228.68C509.869 228.99 510.463 229.15 511.067 229.146C511.756 229.146 512.495 228.953 513.281 228.568H513.627C515.117 229.299 516.442 229.337 517.567 228.68C519.173 227.743 520.211 225.429 520.568 221.99C520.676 220.94 520.545 219.845 520.198 218.906V218.906ZM515.825 213.257C516.091 213.136 516.371 213.054 516.658 213.014C516.785 213.479 516.816 213.968 516.748 214.446C516.681 214.925 516.516 215.383 516.266 215.789C516.015 216.195 515.685 216.539 515.297 216.798C514.91 217.056 514.474 217.224 514.019 217.289C513.803 216.5 513.868 215.655 514.2 214.913C514.533 214.171 515.11 213.582 515.825 213.257V213.257Z" fill="white" fill-opacity="0.4"/>
<g clip-path="url(#clip1_71:595)">
<path fill-rule="evenodd" clip-rule="evenodd" d="M584.65 121.363C584.519 121.014 584.381 120.673 584.254 120.363C583.457 118.425 582.415 116.505 581.517 115.156C580.589 113.765 577.085 110.403 576.409 110.103L576.116 110.909C576.666 111.151 577.779 112.239 577.779 112.239C577.977 112.426 578.24 113.515 578.238 113.693C578.233 113.803 578.233 113.914 578.238 114.025C578.268 114.791 578.15 115.635 577.877 116.6C577.333 118.518 576.114 120.115 574.846 121.391C574.662 121.363 574.479 121.329 574.287 121.329C572.145 121.329 570.41 123.253 570.41 125.626C570.41 128 572.145 129.924 574.287 129.924C576.428 129.924 578.164 128 578.164 125.626C578.164 123.839 577.179 122.309 575.778 121.661C576.987 120.365 578.111 118.779 578.649 116.876C578.952 115.808 579.081 114.861 579.045 113.984C579.041 113.913 580.339 115.114 580.898 115.954C581.773 117.266 582.771 118.859 583.567 120.79C583.644 120.976 583.728 121.18 583.811 121.389C581.925 121.679 580.468 123.455 580.468 125.626C580.468 127.999 582.204 129.924 584.346 129.924C586.487 129.924 588.223 128 588.223 125.626C588.224 123.366 586.647 121.536 584.65 121.363V121.363Z" fill="white" fill-opacity="0.4"/>
</g>
<g clip-path="url(#clip2_71:595)">
<path fill-rule="evenodd" clip-rule="evenodd" d="M81.8436 107.917C81.7557 108.097 81.6068 108.295 81.4486 108.431C81.2552 108.597 81.0142 108.715 80.7592 108.809C80.5812 108.875 80.3459 108.933 80.1557 108.967C79.9585 109.002 79.7164 109.001 79.4882 108.999C79.0828 108.995 78.7627 108.957 78.4015 108.869C78.174 108.813 77.9578 108.752 77.7824 108.683C77.4511 108.552 77.2399 108.408 77.1958 108.314C77.2289 108.159 77.2809 107.914 77.3197 107.694C77.3542 107.497 77.3829 107.299 77.4057 107.101C77.4553 106.67 77.4298 106.367 77.3748 105.867C77.2938 105.129 77.1363 104.793 76.9063 104.355C76.6867 103.936 76.3242 103.351 76.0448 102.974C75.7535 102.582 75.0243 101.814 74.7583 101.528C74.6655 101.556 74.4863 101.616 74.2092 101.67C73.9981 101.712 73.7522 101.762 73.4428 101.751C72.7061 101.726 72.4379 101.586 72.0093 101.306C71.6205 101.053 71.2485 100.545 71.0537 100.059C70.9039 99.6857 70.8578 99.3052 70.923 98.8587C70.9669 98.5583 71.0639 98.2026 71.1415 97.9674C71.2259 97.7116 71.3583 97.4368 71.4695 97.2288C71.4695 97.2288 71.0223 96.6945 70.8433 96.2487C70.6893 95.8648 70.6174 95.3709 70.6482 95.0622C70.6802 94.7418 70.9522 94.154 71.1232 93.9442C71.3484 93.6678 71.5686 93.3813 71.8468 93.1566C72.1195 92.9363 72.4283 92.756 72.7517 92.6209C73.0868 92.481 73.4877 92.3999 73.8055 92.3441C73.8532 92.0895 73.919 91.912 74.0942 91.6057C74.3129 91.2124 74.5531 91.0347 74.9307 90.7582C75.3992 90.4152 76.0522 90.0614 76.686 90.0129C76.959 89.9921 77.3593 89.9835 77.8626 90.0917C78.3003 90.1858 78.7317 90.3636 79.0598 90.5313C79.7185 90.279 80.3339 90.3162 80.8193 90.4481C81.2288 90.5592 81.3161 90.626 81.6907 90.8464C82.0585 91.0053 82.458 91.3747 82.7673 91.8024C83.9196 91.8351 84.8788 92.2404 85.5617 92.6279C86.3384 93.0687 87.0354 93.9113 87.3083 94.4472C87.6129 95.0453 87.9171 95.8914 87.6601 97.1998C89.3575 98.2434 89.183 99.9128 88.2287 100.845C87.3918 101.662 86.0054 101.917 84.6922 101.785C84.2999 102.182 82.8157 103.98 82.8157 103.98C82.8157 103.98 81.3208 105.665 81.8436 107.917V107.917ZM83.4541 100.943C83.251 100.74 83.0768 100.45 82.9414 100.227C82.7878 100.236 82.4722 100.257 82.1619 100.242C81.8508 100.228 81.521 100.182 81.3892 100.105C81.3522 100.216 81.0948 101.135 81.0784 101.7C81.057 102.44 81.0776 102.572 81.1973 102.832C81.2625 102.862 81.3258 102.876 81.4058 102.847C81.6907 102.745 82.1654 102.389 82.5058 102.072C83.0329 101.58 83.4541 100.943 83.4541 100.943V100.943ZM77.5861 100.787C77.5963 100.877 77.6028 101.2 77.5594 101.482C77.5152 101.768 77.4718 102.034 77.3638 102.138C76.9842 102.069 76.7191 101.826 76.4899 101.655C76.4899 101.655 75.7463 101.074 75.6026 100.941C75.712 100.842 75.8659 100.609 75.9206 100.469C75.9206 100.469 76.444 100.622 76.7074 100.677C77.039 100.749 77.4288 100.78 77.5861 100.787Z" fill="white" fill-opacity="0.4"/>
</g>
<path d="M496.376 457.5C496.376 458.371 495.664 459.083 494.793 459.083C493.922 459.083 493.21 458.371 493.21 457.5C493.21 456.629 493.922 455.917 494.793 455.917C495.664 455.917 496.376 456.629 496.376 457.5ZM490.835 455.917C489.964 455.917 489.251 456.629 489.251 457.5C489.251 458.371 489.964 459.083 490.835 459.083C491.706 459.083 492.418 458.371 492.418 457.5C492.418 456.629 491.706 455.917 490.835 455.917ZM498.751 455.917C497.881 455.917 497.168 456.629 497.168 457.5C497.168 458.371 497.881 459.083 498.751 459.083C499.622 459.083 500.335 458.371 500.335 457.5C500.335 456.629 499.622 455.917 498.751 455.917ZM496.772 452.75C495.901 452.75 495.189 453.463 495.189 454.333C495.189 455.204 495.901 455.917 496.772 455.917C497.643 455.917 498.356 455.204 498.356 454.333C498.356 453.463 497.643 452.75 496.772 452.75ZM492.814 452.75C491.943 452.75 491.231 453.463 491.231 454.333C491.231 455.204 491.943 455.917 492.814 455.917C493.685 455.917 494.397 455.204 494.397 454.333C494.397 453.463 493.685 452.75 492.814 452.75ZM496.772 459.083C495.901 459.083 495.189 459.796 495.189 460.667C495.189 461.538 495.901 462.25 496.772 462.25C497.643 462.25 498.356 461.538 498.356 460.667C498.356 459.796 497.643 459.083 496.772 459.083ZM492.814 459.083C491.943 459.083 491.231 459.796 491.231 460.667C491.231 461.538 491.943 462.25 492.814 462.25C493.685 462.25 494.397 461.538 494.397 460.667C494.397 459.796 493.685 459.083 492.814 459.083ZM494.793 462.25C493.922 462.25 493.21 462.963 493.21 463.833C493.21 464.704 493.922 465.417 494.793 465.417C495.664 465.417 496.376 464.704 496.376 463.833C496.376 462.963 495.664 462.25 494.793 462.25ZM496.693 449.742L496.06 448.792C494.318 449.583 494.16 452.433 494.16 452.75H495.347C495.426 452.117 495.664 450.138 496.693 449.742V449.742Z" fill="white" fill-opacity="0.4"/>
<path d="M677.293 262.233C677.293 262.233 512.997 146.029 439.935 119.422C319.514 75.5671 133.337 143.003 94.6345 266.046C48.3982 413.041 384.975 83.355 463.15 215.903C515.264 304.265 372.156 527.621 387.896 590.357C408.268 671.554 624.281 488.04 647.52 561.221C662.183 607.399 625.726 630 625.726 630" stroke="white" stroke-opacity="0.2"/>
<path d="M269.325 37C228.711 166.443 608.397 11.9354 677.064 128.656C722.84 206.466 500.836 248.513 514.662 303.757C532.557 375.258 639.848 252.884 660.261 317.327" stroke="white" stroke-opacity="0.2"/>
</g>
<defs>
<linearGradient id="paint0_linear_71:595" x1="143.174" y1="710.896" x2="1048.35" y2="147.287" gradientUnits="userSpaceOnUse">
<stop stop-color="#EC008C"/>
<stop offset="1" stop-color="#FC6767"/>
</linearGradient>
<clipPath id="clip0_71:595">
<rect width="661" height="748" fill="white"/>
</clipPath>
<clipPath id="clip1_71:595">
<rect width="19" height="20" fill="white" transform="translate(569.293 110)"/>
</clipPath>
<clipPath id="clip2_71:595">
<rect width="19" height="19" fill="white" transform="matrix(-1 0 0 1 89.293 90)"/>
</clipPath>
</defs>
</svg>
